# xmcd
#
# Track frame offsets: 
#        150
#        19512
#        36810
#        54000
#        71047
#        88785
#        115222
#        131767
#        150510
#        168897
#        188487
#        207097
#        225097
#        243432
#        262387
#        281722
#        299962
#        318975
#
# Disc length: 4515 seconds
#
# Revision: 2
# Processed by: cddbd v1.5.2PL0 Copyright (c) Steve Scherf et al.
# Submitted via: ExactAudioCopy v0.99pb4
#
DISCID=fb11a112
DTITLE=Various Artist - Solid Gold Soul - Mid-'80s
DYEAR=2000
DGENRE=R&B
TTITLE0=George Clinton - Atomic Dog
TTITLE1=Mtume - Juicy Fruit
TTITLE2=Cameo - She's Strange
TTITLE3=Ashford And Simpson - Solid
TTITLE4=DeBarge - Rhythm Of The Night
TTITLE5=Aretha Franklin - Freeway Of Love
TTITLE6=Ready For The World - Oh Sheila
TTITLE7=Yarbrough And Peoples - Don't Waste Your Time
TTITLE8=Freddie Jackson - Rock Me Tonight (For Old Times Sake)
TTITLE9=Deniece Williams - Let's Hear It For The Boy
TTITLE10=Kool And The Gang - Fresh
TTITLE11=Rockwell - Somebody's Watching Me
TTITLE12=Rufus Featuring Chaka Khan - Ain't Nobody
TTITLE13=Maze Featuring Frankie Beverly - Back In Stride
TTITLE14=Rick James - Cold Blooded
TTITLE15=Pointer Sisters - Jump (For My Love)
TTITLE16=Midnight Star - Operator
TTITLE17=Commodores - Nightshift
EXTD=
EXTT0=
EXTT1=
EXTT2=
EXTT3=
EXTT4=
EXTT5=
EXTT6=
EXTT7=
EXTT8=
EXTT9=
EXTT10=
EXTT11=
EXTT12=
EXTT13=
EXTT14=
EXTT15=
EXTT16=
EXTT17=
PLAYORDER=
